<mxfile host="app.diagrams.net" agent="Mozilla/5.0 (Windows NT 10.0; Win64; x64) AppleWebKit/537.36 (KHTML, like Gecko) Chrome/140.0.0.0 Safari/537.36" version="28.2.3">
  <diagram name="Page-1" id="NBc5hr-1EMXFUq7klmZV">
    <mxGraphModel grid="1" page="1" gridSize="10" guides="1" tooltips="1" connect="1" arrows="1" fold="1" pageScale="1" pageWidth="850" pageHeight="1100" math="0" shadow="0">
      <root>
        <mxCell id="0" />
        <mxCell id="1" parent="0" />
        <mxCell id="vTlqO_2kMmoJJwbWjeZs-1" value="&lt;span style=&quot;font-size:12.0pt;line-height:&lt;br/&gt;116%;font-family:&amp;quot;Aptos&amp;quot;,sans-serif;mso-ascii-theme-font:minor-latin;&lt;br/&gt;mso-fareast-font-family:&amp;quot;MS Mincho&amp;quot;;mso-fareast-theme-font:minor-fareast;&lt;br/&gt;mso-hansi-theme-font:minor-latin;mso-bidi-font-family:&amp;quot;Times New Roman&amp;quot;;&lt;br/&gt;mso-bidi-theme-font:minor-bidi;mso-ansi-language:EN-GB;mso-fareast-language:&lt;br/&gt;JA;mso-bidi-language:AR-SA&quot; lang=&quot;EN-GB&quot;&gt;Temperature Sensor&amp;nbsp;&lt;/span&gt;" style="rounded=1;whiteSpace=wrap;html=1;" vertex="1" parent="1">
          <mxGeometry x="130" y="220" width="110" height="60" as="geometry" />
        </mxCell>
        <mxCell id="vTlqO_2kMmoJJwbWjeZs-2" value="&lt;span style=&quot;font-size:12.0pt;line-height:&lt;br/&gt;116%;font-family:&amp;quot;Aptos&amp;quot;,sans-serif;mso-ascii-theme-font:minor-latin;&lt;br/&gt;mso-fareast-font-family:&amp;quot;MS Mincho&amp;quot;;mso-fareast-theme-font:minor-fareast;&lt;br/&gt;mso-hansi-theme-font:minor-latin;mso-bidi-font-family:&amp;quot;Times New Roman&amp;quot;;&lt;br/&gt;mso-bidi-theme-font:minor-bidi;mso-ansi-language:EN-GB;mso-fareast-language:&lt;br/&gt;JA;mso-bidi-language:AR-SA&quot; lang=&quot;EN-GB&quot;&gt;Battery Pack&lt;/span&gt;" style="rounded=1;whiteSpace=wrap;html=1;" vertex="1" parent="1">
          <mxGeometry x="305" y="480" width="120" height="60" as="geometry" />
        </mxCell>
        <mxCell id="vTlqO_2kMmoJJwbWjeZs-3" value="&lt;span style=&quot;font-size:12.0pt;line-height:&lt;br/&gt;116%;font-family:&amp;quot;Aptos&amp;quot;,sans-serif;mso-ascii-theme-font:minor-latin;&lt;br/&gt;mso-fareast-font-family:&amp;quot;MS Mincho&amp;quot;;mso-fareast-theme-font:minor-fareast;&lt;br/&gt;mso-hansi-theme-font:minor-latin;mso-bidi-font-family:&amp;quot;Times New Roman&amp;quot;;&lt;br/&gt;mso-bidi-theme-font:minor-bidi;mso-ansi-language:EN-GB;mso-fareast-language:&lt;br/&gt;JA;mso-bidi-language:AR-SA&quot; lang=&quot;EN-GB&quot;&gt;Arduino Nano&lt;/span&gt;" style="rounded=1;whiteSpace=wrap;html=1;" vertex="1" parent="1">
          <mxGeometry x="300" y="160" width="120" height="160" as="geometry" />
        </mxCell>
        <mxCell id="vTlqO_2kMmoJJwbWjeZs-4" value="&lt;span style=&quot;font-size:12.0pt;line-height:&lt;br/&gt;116%;font-family:&amp;quot;Aptos&amp;quot;,sans-serif;mso-ascii-theme-font:minor-latin;&lt;br/&gt;mso-fareast-font-family:&amp;quot;MS Mincho&amp;quot;;mso-fareast-theme-font:minor-fareast;&lt;br/&gt;mso-hansi-theme-font:minor-latin;mso-bidi-font-family:&amp;quot;Times New Roman&amp;quot;;&lt;br/&gt;mso-bidi-theme-font:minor-bidi;mso-ansi-language:EN-GB;mso-fareast-language:&lt;br/&gt;JA;mso-bidi-language:AR-SA&quot; lang=&quot;EN-GB&quot;&gt;Buck Converter (Regulates Power)&lt;/span&gt;" style="rounded=1;whiteSpace=wrap;html=1;" vertex="1" parent="1">
          <mxGeometry x="305" y="370" width="120" height="60" as="geometry" />
        </mxCell>
        <mxCell id="vTlqO_2kMmoJJwbWjeZs-5" value="&lt;font face=&quot;Aptos, sans-serif&quot;&gt;&lt;span style=&quot;font-size: 16px;&quot;&gt;irfz44n mosfet&lt;/span&gt;&lt;/font&gt;" style="rounded=1;whiteSpace=wrap;html=1;" vertex="1" parent="1">
          <mxGeometry x="500" y="260" width="120" height="60" as="geometry" />
        </mxCell>
        <mxCell id="vTlqO_2kMmoJJwbWjeZs-6" value="&lt;span style=&quot;font-size:12.0pt;line-height:&lt;br/&gt;116%;font-family:&amp;quot;Aptos&amp;quot;,sans-serif;mso-ascii-theme-font:minor-latin;&lt;br/&gt;mso-fareast-font-family:&amp;quot;MS Mincho&amp;quot;;mso-fareast-theme-font:minor-fareast;&lt;br/&gt;mso-hansi-theme-font:minor-latin;mso-bidi-font-family:&amp;quot;Times New Roman&amp;quot;;&lt;br/&gt;mso-bidi-theme-font:minor-bidi;mso-ansi-language:EN-GB;mso-fareast-language:&lt;br/&gt;JA;mso-bidi-language:AR-SA&quot; lang=&quot;EN-GB&quot;&gt;Relay Module&amp;nbsp;&lt;/span&gt;" style="rounded=1;whiteSpace=wrap;html=1;" vertex="1" parent="1">
          <mxGeometry x="500" y="170" width="120" height="60" as="geometry" />
        </mxCell>
        <mxCell id="vTlqO_2kMmoJJwbWjeZs-7" value="&lt;span style=&quot;font-size:12.0pt;line-height:&lt;br/&gt;116%;font-family:&amp;quot;Aptos&amp;quot;,sans-serif;mso-ascii-theme-font:minor-latin;&lt;br/&gt;mso-fareast-font-family:&amp;quot;MS Mincho&amp;quot;;mso-fareast-theme-font:minor-fareast;&lt;br/&gt;mso-hansi-theme-font:minor-latin;mso-bidi-font-family:&amp;quot;Times New Roman&amp;quot;;&lt;br/&gt;mso-bidi-theme-font:minor-bidi;mso-ansi-language:EN-GB;mso-fareast-language:&lt;br/&gt;JA;mso-bidi-language:AR-SA&quot; lang=&quot;EN-GB&quot;&gt;Controls ON/OFF of Fans&lt;/span&gt;" style="rounded=1;whiteSpace=wrap;html=1;" vertex="1" parent="1">
          <mxGeometry x="640" y="170" width="120" height="60" as="geometry" />
        </mxCell>
        <mxCell id="vTlqO_2kMmoJJwbWjeZs-8" value="&lt;span style=&quot;font-size:12.0pt;line-height:&lt;br/&gt;116%;font-family:&amp;quot;Aptos&amp;quot;,sans-serif;mso-ascii-theme-font:minor-latin;&lt;br/&gt;mso-fareast-font-family:&amp;quot;MS Mincho&amp;quot;;mso-fareast-theme-font:minor-fareast;&lt;br/&gt;mso-hansi-theme-font:minor-latin;mso-bidi-font-family:&amp;quot;Times New Roman&amp;quot;;&lt;br/&gt;mso-bidi-theme-font:minor-bidi;mso-ansi-language:EN-GB;mso-fareast-language:&lt;br/&gt;JA;mso-bidi-language:AR-SA&quot; lang=&quot;EN-GB&quot;&gt;Controls ON/OFF of Heating Pad&lt;/span&gt;" style="rounded=1;whiteSpace=wrap;html=1;" vertex="1" parent="1">
          <mxGeometry x="640" y="260" width="120" height="60" as="geometry" />
        </mxCell>
        <mxCell id="vTlqO_2kMmoJJwbWjeZs-9" value="" style="endArrow=classic;html=1;rounded=0;" edge="1" parent="1">
          <mxGeometry width="50" height="50" relative="1" as="geometry">
            <mxPoint x="250" y="249.5" as="sourcePoint" />
            <mxPoint x="290" y="249.5" as="targetPoint" />
          </mxGeometry>
        </mxCell>
        <mxCell id="vTlqO_2kMmoJJwbWjeZs-10" value="" style="endArrow=classic;html=1;rounded=0;" edge="1" parent="1">
          <mxGeometry width="50" height="50" relative="1" as="geometry">
            <mxPoint x="620" y="200" as="sourcePoint" />
            <mxPoint x="640" y="199.5" as="targetPoint" />
            <Array as="points">
              <mxPoint x="620" y="200" />
            </Array>
          </mxGeometry>
        </mxCell>
        <mxCell id="vTlqO_2kMmoJJwbWjeZs-13" value="" style="endArrow=classic;html=1;rounded=0;" edge="1" parent="1">
          <mxGeometry width="50" height="50" relative="1" as="geometry">
            <mxPoint x="620" y="290" as="sourcePoint" />
            <mxPoint x="640" y="289.5" as="targetPoint" />
            <Array as="points">
              <mxPoint x="620" y="290" />
            </Array>
          </mxGeometry>
        </mxCell>
        <mxCell id="vTlqO_2kMmoJJwbWjeZs-14" value="" style="endArrow=classic;html=1;rounded=0;exitX=1;exitY=0.25;exitDx=0;exitDy=0;entryX=0;entryY=0.5;entryDx=0;entryDy=0;" edge="1" parent="1" source="vTlqO_2kMmoJJwbWjeZs-3" target="vTlqO_2kMmoJJwbWjeZs-6">
          <mxGeometry width="50" height="50" relative="1" as="geometry">
            <mxPoint x="440" y="200" as="sourcePoint" />
            <mxPoint x="480" y="200" as="targetPoint" />
          </mxGeometry>
        </mxCell>
        <mxCell id="vTlqO_2kMmoJJwbWjeZs-16" value="" style="endArrow=classic;html=1;rounded=0;exitX=1;exitY=0.25;exitDx=0;exitDy=0;entryX=0;entryY=0.5;entryDx=0;entryDy=0;" edge="1" parent="1">
          <mxGeometry width="50" height="50" relative="1" as="geometry">
            <mxPoint x="420" y="289.5" as="sourcePoint" />
            <mxPoint x="500" y="289.5" as="targetPoint" />
          </mxGeometry>
        </mxCell>
        <mxCell id="vTlqO_2kMmoJJwbWjeZs-18" value="" style="endArrow=classic;html=1;rounded=0;" edge="1" parent="1">
          <mxGeometry width="50" height="50" relative="1" as="geometry">
            <mxPoint x="359.5" y="360" as="sourcePoint" />
            <mxPoint x="359.5" y="330" as="targetPoint" />
          </mxGeometry>
        </mxCell>
        <mxCell id="vTlqO_2kMmoJJwbWjeZs-19" value="" style="endArrow=classic;html=1;rounded=0;" edge="1" parent="1">
          <mxGeometry width="50" height="50" relative="1" as="geometry">
            <mxPoint x="365" y="470" as="sourcePoint" />
            <mxPoint x="365" y="440" as="targetPoint" />
          </mxGeometry>
        </mxCell>
        <mxCell id="vTlqO_2kMmoJJwbWjeZs-20" value="&lt;font style=&quot;font-size: 24px;&quot;&gt;&lt;b&gt;HydroChill Block Diagram&lt;/b&gt;&lt;/font&gt;" style="text;html=1;align=center;verticalAlign=middle;resizable=0;points=[];autosize=1;strokeColor=none;fillColor=none;" vertex="1" parent="1">
          <mxGeometry x="250" y="100" width="320" height="40" as="geometry" />
        </mxCell>
        <mxCell id="8p49SEwBHrfqA4AP2IBv-1" value="" style="endArrow=none;html=1;rounded=0;" edge="1" parent="1">
          <mxGeometry width="50" height="50" relative="1" as="geometry">
            <mxPoint x="80" y="90" as="sourcePoint" />
            <mxPoint x="800" y="90" as="targetPoint" />
          </mxGeometry>
        </mxCell>
        <mxCell id="8p49SEwBHrfqA4AP2IBv-2" value="" style="endArrow=none;html=1;rounded=0;" edge="1" parent="1">
          <mxGeometry width="50" height="50" relative="1" as="geometry">
            <mxPoint x="80" y="570" as="sourcePoint" />
            <mxPoint x="800" y="570" as="targetPoint" />
          </mxGeometry>
        </mxCell>
        <mxCell id="8p49SEwBHrfqA4AP2IBv-3" value="" style="endArrow=none;html=1;rounded=0;" edge="1" parent="1">
          <mxGeometry width="50" height="50" relative="1" as="geometry">
            <mxPoint x="800" y="570" as="sourcePoint" />
            <mxPoint x="800" y="90" as="targetPoint" />
          </mxGeometry>
        </mxCell>
        <mxCell id="8p49SEwBHrfqA4AP2IBv-4" value="" style="endArrow=none;html=1;rounded=0;" edge="1" parent="1">
          <mxGeometry width="50" height="50" relative="1" as="geometry">
            <mxPoint x="80" y="570" as="sourcePoint" />
            <mxPoint x="80" y="90" as="targetPoint" />
          </mxGeometry>
        </mxCell>
      </root>
    </mxGraphModel>
  </diagram>
</mxfile>
